<?xml version="1.0" encoding="utf-8"?>
<!-- Generator: Adobe Illustrator 24.2.3, SVG Export Plug-In . SVG Version: 6.00 Build 0)  -->
<svg version="1.1" id="Layer_1" xmlns="http://www.w3.org/2000/svg" xmlns:xlink="http://www.w3.org/1999/xlink" x="0px" y="0px"
	 viewBox="0 0 64 64" style="enable-background:new 0 0 64 64;" xml:space="preserve">
<style type="text/css">
	.st0{fill:#77B3D4;}
	.st1{opacity:0.2;}
	.st2{fill:#231F20;}
	.st3{fill:#C75C5C;}
	.st4{fill:#E0995E;}
	.st5{fill:#F5CF87;}
	.st6{fill:#4F5D73;}
	.st7{fill:#FFFFFF;}
</style>
<g id="Layer_1_1_">
	<g>
		<circle class="st0" cx="32" cy="32" r="24"/>
	</g>
	<g class="st1">
		<path class="st2" d="M35.8,18.5h-7.5c-1.3,0-2.2,1-2.2,2.2v3.8v0.8v17.2l4,6l2,3l2-3l4-6V25.2v-0.8v-3.8
			C38,19.5,37,18.5,35.8,18.5z"/>
	</g>
	<g>
		<path class="st3" d="M38,23.8c0,1.3-1,2.2-2.2,2.2h-7.5C27,26,26,25,26,23.8v-4.5c0-1.3,1-2.2,2.2-2.2h7.5c1.3,0,2.2,1,2.2,2.2
			V23.8z"/>
	</g>
	<g>
		<rect x="26" y="23" class="st4" width="3" height="18"/>
	</g>
	<g>
		<rect x="29" y="23" class="st5" width="6" height="19.5"/>
	</g>
	<g>
		<rect x="35" y="23" class="st4" width="3" height="18"/>
	</g>
	<g>
		<g>
			<polygon class="st6" points="32,50 34,47 30,47 			"/>
		</g>
		<g>
			<polygon class="st7" points="26,41 30,47 34,47 38,41 36.5,41 35,39.5 32,42.5 29,39.5 27.5,41 			"/>
		</g>
	</g>
</g>
<g id="Layer_2_1_">
</g>
</svg>
